<svg xmlns="http://www.w3.org/2000/svg" width="60mm" height="60mm" viewBox="0 0 6000 6000"><defs><style type="text/css"><![CDATA[.dots {fill:#127E9B}.bg {fill:#E9EAEC}]]></style></defs><g id="dice-object"><rect id="background" class="bg" width="6000" height="6000"/><path id="d03" class="dots" d="M1200 4300c276,0 500,224 500,500 0,276 -224,500 -500,500 -276,0 -500,-224 -500,-500 0,-276 224,-500 500,-500z"/><path id="d04" class="dots" d="M3000 2500c276,0 500,224 500,500 0,276 -224,500 -500,500 -276,0 -500,-224 -500,-500 0,-276 224,-500 500,-500z"/><path id="d05" class="dots" d="M4800 700c276,0 500,224 500,500 0,276 -224,500 -500,500 -276,0 -500,-224 -500,-500 0,-276 224,-500 500,-500z"/></g></svg>